<svg width="11" height="14" viewBox="0 0 11 14" fill="none" xmlns="http://www.w3.org/2000/svg">
<path d="M9.875 12.7273H9.25V10.71C9.25 10.2009 9.05625 9.72364 8.7 9.36091L6.38125 7L8.7 4.63909C9.05625 4.28273 9.25 3.79909 9.25 3.29V1.27273H9.875C10.2188 1.27273 10.5 0.986364 10.5 0.636364C10.5 0.286364 10.2188 0 9.875 0H1.125C0.78125 0 0.5 0.286364 0.5 0.636364C0.5 0.986364 0.78125 1.27273 1.125 1.27273H1.75V3.29C1.75 3.79909 1.94375 4.27636 2.3 4.63909L4.61875 7L2.3 9.36091C1.94375 9.71727 1.75 10.2009 1.75 10.71V12.7273H1.125C0.78125 12.7273 0.5 13.0136 0.5 13.3636C0.5 13.7136 0.78125 14 1.125 14H9.875C10.2188 14 10.5 13.7136 10.5 13.3636C10.5 13.0136 10.2188 12.7273 9.875 12.7273ZM3 3.29V1.27273H8V3.29C8 3.45545 7.93125 3.62091 7.81875 3.74182L5.5 6.10273L3.18125 3.74182C3.06875 3.62091 3 3.46182 3 3.29ZM3 10.71C3 10.5445 3.06875 10.3791 3.18125 10.2582L5.5 7.89727L7.81875 10.2582C7.9375 10.3791 8 10.5382 8 10.71V12.7273H3V10.71Z" fill="#838383"/>
</svg>
