<svg width="14" height="15" viewBox="0 0 14 15" fill="none" xmlns="http://www.w3.org/2000/svg">
<path d="M14 3.28362V1.37453C14 0.674534 13.4273 0.101807 12.7273 0.101807H10.8182C10.1182 0.101807 9.54545 0.674534 9.54545 1.37453V1.56544C7.85273 1.29181 6.14727 1.29181 4.45455 1.56544V1.37453C4.45455 0.674534 3.88182 0.101807 3.18182 0.101807H1.27273C0.572727 0.101807 0 0.674534 0 1.37453V3.28362C0 3.98362 0.572727 4.55635 1.27273 4.55635H1.46364C1.19 6.24908 1.19 7.95453 1.46364 9.64726H1.27273C0.572727 9.64726 0 10.22 0 10.92V12.8291C0 13.5291 0.572727 14.1018 1.27273 14.1018H3.18182C3.88182 14.1018 4.45455 13.5291 4.45455 12.8291V12.6382C5.30091 12.7782 6.14727 12.8482 7 12.8482C7.85273 12.8482 8.69909 12.7782 9.54545 12.6382V12.8291C9.54545 13.5291 10.1182 14.1018 10.8182 14.1018H12.7273C13.4273 14.1018 14 13.5291 14 12.8291V10.92C14 10.22 13.4273 9.64726 12.7273 9.64726H12.5364C12.81 7.95453 12.81 6.24908 12.5364 4.55635H12.7273C13.4273 4.55635 14 3.98362 14 3.28362ZM10.8182 1.37453H12.7273V3.28362H10.8182V1.37453ZM1.27273 1.37453H3.18182V3.28362H1.27273V1.37453ZM3.18182 12.8291H1.27273V10.92H3.18182V12.8291ZM12.7273 12.8291H10.8182V10.92H12.7273V12.8291ZM11.2445 9.64726H10.8182C10.1182 9.64726 9.54545 10.22 9.54545 10.92V11.3464C7.85273 11.6454 6.14727 11.6454 4.45455 11.3464V10.92C4.45455 10.22 3.88182 9.64726 3.18182 9.64726H2.75545C2.45636 7.95453 2.45636 6.24908 2.75545 4.55635H3.18182C3.88182 4.55635 4.45455 3.98362 4.45455 3.28362V2.85726C6.14727 2.55817 7.85273 2.55817 9.54545 2.85726V3.28362C9.54545 3.98362 10.1182 4.55635 10.8182 4.55635H11.2445C11.5436 6.24908 11.5436 7.95453 11.2445 9.64726Z" fill="#838383"/>
</svg>
