<svg width="14" height="14" viewBox="0 0 14 14" fill="none" xmlns="http://www.w3.org/2000/svg">
<path d="M7 8.27271H3.18182C1.42545 8.27271 0 9.69816 0 11.4545V12.7273C0 13.0773 0.286364 13.3636 0.636364 13.3636C0.986364 13.3636 1.27273 13.0773 1.27273 12.7273V11.4545C1.27273 10.4045 2.13182 9.54543 3.18182 9.54543H7C8.05 9.54543 8.90909 10.4045 8.90909 11.4545V12.7273C8.90909 13.0773 9.19545 13.3636 9.54545 13.3636C9.89545 13.3636 10.1818 13.0773 10.1818 12.7273V11.4545C10.1818 9.69816 8.75636 8.27271 7 8.27271Z" fill="#838383"/>
<path d="M9.38632 5.66363C9.04268 5.75272 8.83904 6.09636 8.92814 6.44C9.0045 6.72636 9.25904 6.91727 9.54541 6.91727C9.59632 6.91727 9.65359 6.91091 9.7045 6.89818C10.8245 6.60545 11.6963 5.73363 11.9827 4.62C12.4218 2.92091 11.3972 1.18363 9.7045 0.744542C9.36723 0.655451 9.01723 0.859087 8.92814 1.20272C8.83904 1.54 9.04268 1.89 9.38632 1.97909C10.4045 2.24636 11.0218 3.29 10.7545 4.30818C10.5827 4.97 10.0545 5.49181 9.38632 5.66363Z" fill="#838383"/>
<path d="M11.6137 8.37467C11.2764 8.28558 10.9264 8.48921 10.8373 8.83285C10.7482 9.17012 10.9519 9.52012 11.2955 9.60921C12.1355 9.82558 12.7273 10.5829 12.7273 11.4547V12.7274C12.7273 13.0774 13.0137 13.3638 13.3637 13.3638C13.7137 13.3638 14 13.0774 14 12.7274V11.4547C14 10.0038 13.02 8.7374 11.6137 8.37467Z" fill="#838383"/>
<path d="M5.091 7.00011C6.84736 7.00011 8.27282 5.57466 8.27282 3.81829C8.27282 2.06193 6.84736 0.636475 5.091 0.636475C3.33463 0.636475 1.90918 2.06193 1.90918 3.81829C1.90918 5.57466 3.33463 7.00011 5.091 7.00011ZM5.091 1.9092C6.141 1.9092 7.00009 2.76829 7.00009 3.81829C7.00009 4.86829 6.141 5.72738 5.091 5.72738C4.041 5.72738 3.18191 4.86829 3.18191 3.81829C3.18191 2.76829 4.041 1.9092 5.091 1.9092Z" fill="#838383"/>
</svg>
